# xmcd CD database file
#
# Track frame offsets:
#	150
#	19934
#	38318
#	54995
#	73974
#	109462
#	133824
#	157665
#	183161
#	208705
#	233576
#	251846
#	272353
#
# Disc length: 4042 seconds
#
# Revision: 5
# Processed by: cddbd v1.5.2PL0 Copyright (c) Steve Scherf et al.
# Submitted via: CDex 1.70beta2
#
DISCID=ac0fc80d
DTITLE=mile jelic - JazzMile
DYEAR=2005
DGENRE=Jazz
TTITLE0=Carmen McRae - Feeling good
TTITLE1=Jamie Cullum - You and the night and the music
TTITLE2=Michael Buble - Moondance
TTITLE3=Matt Bianco - Slip'n'Slidin
TTITLE4=Rosalia de Souza - Bossa 31 (Gerardo Frisina rmx)
TTITLE5=Pilout Jazou - Your Crime (Nicola Conte Jazz Disceples Rework)
TTITLE6=Cal Tjader - Cuban Fantasy
TTITLE7=Diana Krall - East of the Sun (And West of the Moon)
TTITLE8=Nicola Conte - Other Directions
TTITLE9=Horace Silver - Not Enough Mama
TTITLE10=Peter Cincotti - Sway
TTITLE11=Marco Di Marco - Take Off (NICOLA CONTE Version)
TTITLE12=Terry Callier - Paris Blues
EXTD=YEAR: 2005
EXTT0=
EXTT1=
EXTT2=
EXTT3=
EXTT4=
EXTT5=
EXTT6=
EXTT7=
EXTT8=
EXTT9=
EXTT10=
EXTT11=
EXTT12=
PLAYORDER=
